<?xml version="1.0" standalone="no"?>
<!DOCTYPE svg PUBLIC "-//W3C//DTD SVG 20010904//EN"
 "http://www.w3.org/TR/2001/REC-SVG-20010904/DTD/svg10.dtd">
<svg version="1.0" xmlns="http://www.w3.org/2000/svg"
 width="256.000000pt" height="256.000000pt" viewBox="0 0 256.000000 256.000000"
 preserveAspectRatio="xMidYMid meet">

<g transform="translate(0.000000,256.000000) scale(0.100000,-0.100000)"
fill="#000000" stroke="none">
<path d="M975 2320 c-209 -53 -382 -183 -464 -350 -50 -103 -80 -216 -88 -332
-6 -87 -6 -88 -50 -133 -43 -43 -44 -47 -38 -87 4 -24 15 -65 24 -93 13 -42
21 -52 48 -59 23 -7 39 -22 57 -56 l25 -47 -29 -28 c-65 -63 -93 -177 -70
-290 16 -80 74 -226 121 -304 50 -82 178 -241 226 -280 88 -73 213 -90 336
-47 80 29 203 97 256 143 l38 32 17 -30 c25 -43 90 -82 150 -90 28 -4 85 -20
126 -34 99 -36 191 -32 268 10 64 35 151 125 185 191 14 27 34 54 45 61 15 9
26 38 42 108 29 125 25 235 -12 316 -28 62 -88 135 -119 144 -29 10 -25 51 6
59 15 4 27 15 29 29 22 107 18 122 -47 161 l-44 25 -6 128 c-6 147 -27 235
-87 358 -100 208 -305 396 -521 477 -75 28 -97 32 -214 34 -105 3 -146 0 -210
-16z m390 -32 c139 -46 285 -144 385 -260 34 -39 68 -81 77 -95 15 -22 14 -25
-3 -38 -10 -8 -22 -15 -25 -15 -3 0 -21 21 -40 46 -46 63 -165 164 -238 203
-211 112 -405 107 -621 -16 -3 -2 -18 18 -34 43 l-30 47 25 20 c41 34 143 77
205 86 82 13 226 2 299 -21z m-495 -36 c-53 -35 -126 -113 -158 -165 -40 -66
-78 -175 -93 -266 -11 -63 -14 -68 -51 -90 -22 -12 -57 -38 -78 -57 -20 -19
-40 -34 -42 -34 -3 0 -1 26 4 58 42 268 152 430 365 537 74 38 92 44 53 17z
m318 -206 c126 -34 264 -119 364 -223 115 -121 157 -222 159 -377 1 -50 4
-102 8 -116 4 -15 32 -42 69 -68 62 -43 69 -55 53 -81 -7 -11 -15 -11 -41 -2
-141 49 -289 -57 -396 -283 l-37 -77 -37 90 c-48 117 -108 207 -180 275 -121
111 -223 129 -350 63 -39 -20 -73 -37 -75 -37 -3 0 -5 18 -5 41 0 23 -14 73
-31 115 l-31 75 38 56 39 57 6 145 c7 157 21 215 75 292 24 35 47 48 109 62
46 11 214 6 263 -7z m-500 -306 c21 0 22 -4 22 -80 0 -87 -1 -89 -59 -69 l-31
11 0 75 c0 73 1 75 23 69 12 -3 32 -6 45 -6z m-78 -75 c0 -78 -22 -131 -48
-119 -9 4 -32 9 -49 12 -44 6 -41 24 9 61 23 17 37 31 31 31 -6 0 -32 -20 -57
-45 -26 -25 -49 -45 -51 -45 -3 0 -5 13 -5 29 0 23 11 38 48 68 113 94 122 94
122 8z m1283 -169 l3 -86 -74 -40 c-40 -22 -76 -40 -78 -40 -3 0 -3 39 -2 87
l3 86 69 43 c39 24 71 42 73 40 2 -2 5 -42 6 -90z m-1390 -18 c19 -37 27 -67
25 -89 -3 -30 -6 -26 -27 41 -13 41 -31 84 -40 94 -13 16 -14 18 -1 15 8 -3
28 -30 43 -61z m43 45 c33 -33 117 -221 122 -273 3 -39 9 -51 25 -56 31 -10
115 -92 157 -154 59 -87 140 -244 140 -271 0 -13 -4 -19 -8 -13 -10 15 -50 24
-54 12 -4 -10 -24 22 -103 162 -64 114 -142 204 -201 233 -48 23 -51 28 -29
47 8 7 15 27 15 46 0 28 -45 145 -96 248 -17 36 -17 36 0 36 8 0 22 -8 32 -17z
m-62 -97 c15 -53 16 -69 6 -81 -7 -8 -16 -15 -21 -15 -13 0 -49 108 -49 149 0
81 36 51 64 -53z m1476 79 c29 -15 30 -19 30 -81 0 -70 1 -69 -52 -32 -25 17
-28 26 -28 74 0 59 5 62 50 39z m-1537 -107 c23 -73 26 -93 15 -99 -41 -26
-62 6 -74 108 -6 49 4 83 25 83 4 0 19 -41 34 -92z m177 -144 c0 -13 -66 -74
-80 -74 -5 0 -17 14 -25 30 -16 30 -15 31 27 81 l43 51 17 -38 c10 -22 18 -44
18 -50z m1450 -79 c-14 -57 -28 -94 -34 -92 -15 5 -14 10 14 115 34 123 51
104 20 -23z m-1012 59 c71 -35 153 -119 207 -211 47 -82 53 -108 32 -137 -12
-17 -18 -11 -61 69 -86 159 -163 246 -233 264 -21 5 -60 13 -88 17 -38 5 -45
9 -30 15 44 17 120 9 173 -17z m878 1 c-11 -8 -25 -15 -30 -15 -6 1 0 7 14 15
32 19 40 18 16 0z m164 -65 l-11 -25 6 25 c2 14 5 34 6 45 2 19 2 19 6 0 2
-12 -1 -32 -7 -45z m-1183 37 c55 -16 120 -63 161 -114 56 -71 17 -57 -72 25
-47 43 -100 84 -118 89 -47 15 -21 15 29 0z m-36 -18 c50 -17 136 -85 155
-122 10 -20 12 -28 3 -19 -12 12 -109 18 -109 7 0 -3 11 -17 24 -31 36 -40 99
-174 106 -226 8 -61 -5 -52 -42 31 -49 107 -114 213 -177 288 -33 39 -57 74
-54 77 10 10 57 7 94 -5z m-251 -36 c103 -53 197 -188 308 -443 35 -80 73
-153 85 -162 17 -14 19 -18 6 -18 -24 0 -32 12 -94 150 -80 178 -140 274 -220
356 -112 115 -168 120 -233 22 -25 -38 -27 -49 -27 -142 0 -117 28 -214 94
-326 46 -78 66 -137 26 -75 -129 198 -178 418 -121 541 20 43 96 123 118 124
3 0 29 -12 58 -27z m1180 4 c34 -17 65 -78 84 -162 l16 -70 -5 59 c-3 33 -15
80 -25 104 l-20 45 21 -19 c12 -10 32 -41 45 -69 20 -41 24 -66 24 -143 0 -51
-7 -124 -16 -163 -14 -60 -18 -69 -38 -69 -23 0 -109 52 -123 73 -5 7 -8 60
-8 119 0 93 -3 110 -21 135 -33 44 -82 44 -132 -1 -47 -43 -96 -131 -117 -211
-17 -66 -20 -210 -5 -249 14 -38 51 -59 84 -47 22 9 26 8 26 -7 0 -40 -23 -93
-52 -122 -42 -42 -80 -38 -121 12 l-30 37 17 59 c20 72 20 140 1 231 -13 65
-13 73 5 126 80 232 269 393 390 332z m-1192 -66 c10 -6 9 -11 -4 -22 -9 -7
-32 -36 -50 -64 -36 -53 -45 -42 -19 22 16 37 43 73 54 73 3 0 12 -4 19 -9z
m62 -46 c27 -28 17 -36 -41 -32 -37 2 -39 7 -11 40 20 22 24 22 52 -8z m1300
-45 c24 -87 4 -277 -40 -376 -30 -69 -33 -49 -5 38 45 143 52 314 14 392 -10
21 -10 21 6 1 8 -10 20 -35 25 -55z m69 -2 c61 -60 83 -156 62 -270 -11 -56
-16 -66 -41 -75 -38 -14 -54 -68 -38 -132 13 -53 26 -74 41 -64 6 4 7 1 2 -7
-4 -7 -2 -16 6 -20 10 -7 6 -18 -16 -50 -33 -47 -81 -88 -145 -121 -55 -28
-164 -31 -220 -6 l-35 16 33 -6 c40 -7 85 14 77 35 -4 12 -2 12 8 3 12 -9 23
-1 58 40 24 28 50 57 57 64 6 8 12 19 12 25 0 6 7 22 16 35 10 15 14 37 12 56
-3 18 5 58 20 97 48 133 64 283 39 379 -13 47 -12 51 2 43 9 -4 31 -23 50 -42z
m-975 16 c3 -8 2 -12 -4 -9 -6 3 -10 10 -10 16 0 14 7 11 14 -7z m1105 -90
c45 -93 47 -218 5 -361 -11 -39 -20 -53 -34 -53 -30 0 -32 32 -10 123 29 123
27 253 -5 332 l-25 60 25 -30 c13 -16 33 -48 44 -71z m-1497 49 c47 -39 58
-51 58 -59 0 -4 6 -15 14 -23 8 -9 26 -40 41 -69 15 -29 31 -50 37 -46 6 4 8
-1 4 -14 -4 -12 -1 -26 9 -36 9 -9 14 -16 11 -16 -2 0 2 -20 11 -45 8 -25 18
-45 22 -45 4 0 8 -12 9 -26 1 -14 16 -53 33 -85 27 -49 31 -65 25 -100 -19
-120 -105 -173 -193 -120 -94 58 -233 385 -233 549 0 88 43 162 94 162 13 0
39 -12 58 -27z m228 -313 c0 -5 -5 -10 -11 -10 -5 0 -7 5 -4 10 3 6 8 10 11
10 2 0 4 -4 4 -10z m160 -44 c0 -46 -23 -65 -50 -41 -27 24 -25 54 3 65 39 16
47 12 47 -24z m90 -106 c5 -10 7 -26 3 -36 -4 -11 -3 -15 5 -10 6 3 13 2 17
-4 7 -12 65 -10 65 2 0 4 5 8 11 8 16 0 5 -90 -16 -130 -19 -37 -56 -61 -150
-97 -79 -31 -164 -36 -229 -14 l-39 14 39 13 c21 7 49 26 62 41 21 26 52 110
52 140 0 8 13 13 38 13 56 0 105 27 100 54 -6 28 28 33 42 6z m616 -147 c-45
-41 -114 -84 -133 -83 -4 1 9 10 30 21 20 11 60 42 89 69 28 27 54 47 57 44 3
-3 -16 -26 -43 -51z m64 23 c0 -2 -8 -10 -17 -17 -16 -13 -17 -12 -4 4 13 16
21 21 21 13z"/>
</g>
</svg>
